<?xml version="1.0" encoding="UTF-8" standalone="no"?>
<svg width="149px" height="36px" viewBox="0 0 149 36" version="1.1" xmlns="http://www.w3.org/2000/svg" xmlns:xlink="http://www.w3.org/1999/xlink" xmlns:sketch="http://www.bohemiancoding.com/sketch/ns">
    <defs></defs>
    <g id="Page-1" stroke="none" stroke-width="1" fill="none" fill-rule="evenodd" sketch:type="MSPage">
        <g id="duke_logo" sketch:type="MSLayerGroup" transform="translate(1.000000, 1.000000)">
            <rect id="Rectangle-path" stroke="#FFFFFF" sketch:type="MSShapeGroup" x="0.1" y="0" width="34.4" height="34.4"></rect>
            <g id="Group" transform="translate(8.000000, 6.000000)" fill="#FFFFFF" sketch:type="MSShapeGroup">
                <path d="M15.4,18.3 C13,20 9.6,21 9.3,21 L9.3,21 C9.6,20.9 12.4,19.5 13.7,18.3 C14.3,17.7 14.8,16.8 15.1,16.1 C14.9,16.2 14.8,16.5 13.4,17.3 C12,18.1 9.6,18.9 9.4,19 L9.4,19 C9.6,18.9 11.3,18 12.3,16.8 C12.9,16.1 13.4,15.5 13.7,14.9 C12.5,15.9 9.7,16.9 9.4,17 L9.4,17 C9.6,16.9 10.6,16.3 11.5,15.3 C12.1,14.6 12.2,14.1 12.3,13.7 C11,14.7 9.6,14.9 9.5,15 L9.5,15 C9.7,14.9 10.8,14.1 10.9,12.5 C9.9,13.4 9,13.1 8.6,12.7 C8.2,12.3 8.2,11.6 8.2,11.6 L8.2,0.6 L6.8,0.6 L6.8,1.6 L4.9,1.6 L4.9,0.6 L3.5,0.6 L3.5,1.6 L1.6,1.6 L1.6,0.6 L0,0.6 L0,13.2 C0,13.2 0,16.8 3.3,19.5 C5.6,21.4 9.3,23.2 9.3,23.2 C9.6,23.1 13.1,21.3 14.6,20 C15.7,19 16.2,18.4 16.6,17.6 C16.2,17.7 15.8,18 15.4,18.3 L15.4,18.3 Z" id="Shape"></path>
                <g transform="translate(10.000000, 0.000000)" id="Shape">
                    <path d="M3.6,10.4 L3.6,1.6 L2.3,1.6 L2.3,12.1 C2.3,12.1 2.3,12.8 2.1,13.6 C3.8,12.5 3.6,10.4 3.6,10.4 L3.6,10.4 Z"></path>
                    <path d="M5.2,11.4 L5.2,0.5 L3.9,0.5 L3.9,13 C3.9,13 3.9,13.9 3.5,14.9 C5.2,13.5 5.2,11.4 5.2,11.4 L5.2,11.4 Z"></path>
                    <path d="M6.8,12.1 L6.8,1.5 L5.5,1.5 L5.5,13.6 C5.5,13.6 5.4,15.3 5,16 C6.8,15 6.8,12.1 6.8,12.1 L6.8,12.1 Z"></path>
                    <path d="M8.4,13 L8.4,0.5 L7.1,0.5 L7.1,14.8 C7.1,14.8 7,16.1 6.5,17.4 C8.5,15.4 8.4,13 8.4,13 L8.4,13 Z"></path>
                    <path d="M2,9.6 L2,0.5 L0.7,0.5 L0.7,11.3 L0.7,12.4 C2.1,11.1 2,9.6 2,9.6 L2,9.6 Z"></path>
                </g>
            </g>
            <g id="Group" transform="translate(41.000000, 9.000000)" fill="#FFFFFF" sketch:type="MSShapeGroup">
                <path d="M0.7,1.8 L5.7,1.8 C10.5,1.8 13.8,3.3 13.8,8.6 C13.8,13.7 10.4,15.5 5.7,15.5 L0.7,15.5 L0.7,1.8 L0.7,1.8 Z M4.4,12.8 L5.8,12.8 C8.5,12.8 10.1,11.4 10.1,8.6 C10.1,5.9 8.5,4.4 5.8,4.4 L4.4,4.4 L4.4,12.8 L4.4,12.8 Z" id="Shape"></path>
                <path d="M26.2,15.5 L23,15.5 L23,13.6 L23,13.6 C22.3,15.1 20.9,15.7 19.3,15.7 C16.5,15.7 15.4,13.7 15.4,11.6 L15.4,5.2 L18.9,5.2 L18.9,10.2 C18.9,12.1 19.6,12.8 20.5,12.8 C22,12.8 22.7,11.8 22.7,9.6 L22.7,5.3 L26.2,5.3 L26.2,15.5 L26.2,15.5 Z" id="Shape"></path>
                <path d="M28.3,0.8 L31.8,0.8 L31.8,9.6 L31.8,9.6 L34.8,5.3 L38.7,5.3 L35.1,10 L39,15.5 L34.7,15.5 L31.9,10.4 L31.9,10.4 L31.9,15.5 L28.4,15.5 L28.4,0.8 L28.3,0.8 Z" id="Shape"></path>
                <path d="M42.4,11.4 C42.6,12.8 43.7,13.4 45.4,13.4 C46.4,13.4 47.5,13.2 48.5,12.6 L48.5,15.1 C47.4,15.6 46.1,15.7 44.7,15.7 C41.3,15.7 38.7,13.7 38.7,10.3 C38.7,6.9 41,4.9 44.2,4.9 C48,4.9 49.4,7.6 49.4,10.6 L49.4,11.2 L42.4,11.2 L42.4,11.4 Z M46.3,9.4 C46.3,8.2 45.7,7.3 44.3,7.3 C43,7.3 42.4,8.3 42.3,9.4 L46.3,9.4 L46.3,9.4 Z" id="Shape"></path>
                <path d="M52,1.8 L54,1.8 L54,7.5 L60.6,7.5 L60.6,1.8 L62.6,1.8 L62.6,15.5 L60.6,15.5 L60.6,9.2 L54,9.2 L54,15.5 L52,15.5 L52,1.8 L52,1.8 Z" id="Shape"></path>
                <path d="M73.1,15.1 C72.4,15.4 71.6,15.7 69.9,15.7 C66.3,15.7 64.7,13.5 64.7,10.3 C64.7,7.3 66.6,5.2 69.4,5.2 C72.7,5.2 73.8,7.6 73.8,10.9 L66.6,10.9 C66.6,12.9 68.2,14.2 69.9,14.2 C71.1,14.2 72.5,13.6 73,13.2 L73,15.1 L73.1,15.1 Z M71.9,9.6 C71.9,8.1 71,6.8 69.4,6.8 C67.6,6.8 66.8,8.3 66.7,9.6 L71.9,9.6 L71.9,9.6 Z" id="Shape"></path>
                <path d="M76.3,6.2 C77.2,5.6 78.3,5.3 79.6,5.3 C82.5,5.3 83.6,6.7 83.6,9.5 L83.6,13.7 C83.6,14.8 83.6,15.4 83.7,15.7 L82,15.7 L82,14.4 L82,14.4 C81.6,15 80.6,15.9 78.9,15.9 C76.7,15.9 75.2,15 75.2,12.8 C75.2,10.3 78,9.5 79.9,9.5 L81.9,9.5 C81.9,7.8 81.3,6.9 79.4,6.9 C78.4,6.9 77.2,7.3 76.5,7.9 L76.3,6.2 L76.3,6.2 Z M81.8,10.8 L80.6,10.8 C79.6,10.8 77.1,11 77.1,12.7 C77.1,13.8 78.1,14.3 79,14.3 C80.8,14.3 81.8,13.2 81.8,11.7 L81.8,10.8 L81.8,10.8 Z" id="Shape"></path>
                <path d="M86.2,0.8 L88,0.8 L88,15.6 L86.2,15.6 L86.2,0.8 L86.2,0.8 Z" id="Shape"></path>
                <path d="M96.3,7 L93.6,7 L93.6,12.5 C93.6,13.7 94.3,14.3 95.2,14.3 C95.8,14.3 96.2,14.1 96.5,13.9 L96.5,15.5 C96.1,15.6 95.5,15.8 94.9,15.8 C93,15.8 91.8,14.9 91.8,12.9 L91.8,7 L89.5,7 L89.5,5.5 L91.8,5.5 L91.8,3.2 L93.6,2.6 L93.6,5.5 L96.3,5.5 L96.3,7 L96.3,7 Z" id="Shape"></path>
                <path d="M98.1,0.8 L99.9,0.8 L99.9,7 L99.9,7 C100.6,5.9 101.7,5.3 103.1,5.3 C105.7,5.3 106.9,6.9 106.9,9.6 L106.9,15.6 L105.1,15.6 L105.1,10.4 C105.1,8.1 104.6,6.9 103,6.8 C100.9,6.8 100,8.5 100,10.9 L100,15.5 L98.2,15.5 L98.2,0.8 L98.1,0.8 Z" id="Shape"></path>
            </g>
        </g>
    </g>
</svg>